<svg id="Capa_1" enable-background="new 0 0 512 512" height="512" viewBox="0 0 512 512" width="512" xmlns="http://www.w3.org/2000/svg"><g><g><g><path d="m264.604 509.695 206.89-119.448c5.324-3.074 8.604-8.754 8.604-14.902v-238.704c0-3.074-.82-6.031-2.305-8.604l-443.578-.09c-1.489 2.575-2.311 5.536-2.311 8.613v238.784c0 6.148 3.28 11.828 8.604 14.902l206.89 119.448c5.322 3.074 11.882 3.074 17.206.001z" fill="#fba615"/></g><g><path d="m480.097 136.641c0-3.11-.842-6.099-2.361-8.693l-221.785 128.047v256.003c2.987.008 5.976-.758 8.652-2.304l206.89-119.448c5.324-3.074 8.604-8.754 8.604-14.902z" fill="#f88604"/></g><g><path d="m477.736 127.948-32.212 18.598v206.404c0 6.147-3.28 11.828-8.604 14.902l-180.969 104.483v39.664c2.987.008 5.976-.758 8.652-2.304l206.89-119.448c5.324-3.074 8.604-8.754 8.604-14.902v-238.704c0-3.111-.842-6.099-2.361-8.693z" fill="#f16600"/></g><g><g><path d="m255.976 255.981 221.76-128.033c-1.483-2.533-3.612-4.69-6.243-6.209l-206.864-119.434c-5.322-3.073-11.878-3.074-17.201-.003l-206.916 119.353c-2.661 1.535-4.812 3.722-6.298 6.292z" fill="#fdd8a3"/></g></g></g><path d="m397.433 174.311 15.367-8.872-65.417-37.786 67.161-38.793-15.367-8.872-67.158 38.791-59.309-34.259 67.144-38.783-15.367-8.872-67.141 38.781-68.488-39.56-15.35 8.854c.134.089.265.181.406.263l68.068 39.317-59.31 34.258-68.54-39.589-15.273 8.81c.307.247.629.481.981.684l67.467 38.97-68.447 37.65 15.367 8.872 68.445-37.649 59.31 34.258-68.312 37.71 15.367 8.872 68.308-37.708 65.396 37.774 15.367-8.872-65.4-37.776 59.31-34.258zm-140.087-12.4-59.31-34.258 59.31-34.258 59.31 34.258z" fill="#fba615"/><path d="m188.986 217.304-15.369-8.873v76.69l-59.331-34.27v-76.674l-15.369-8.873v76.67l-67.014-38.709v17.749l67.014 38.709v68.517l-67.014-38.71v17.749l67.014 38.709v77.983l15.369 8.873v-77.979l59.331 34.27v77.963l15.369 8.873v-77.959l66.966 38.68v-17.749l-66.966-38.68v-68.517l66.966 38.68v-17.749l-66.966-38.68zm-15.369 154.083-59.331-34.27v-68.517l59.331 34.27z" fill="#f88604"/><path d="m480.097 220.941v-17.749l-67.039 38.723v-76.625l-15.369 8.873v76.629l-59.331 34.27v-76.645l-15.369 8.873v76.649l-67.039 38.723v17.749l67.039-38.723v68.517l-67.039 38.723v17.749l67.039-38.723v78.032l15.369-8.873v-78.036l59.331-34.27v78.051l15.369-8.873v-78.055l67.039-38.723v-17.749l-67.039 38.723v-68.517zm-82.407 116.116-59.331 34.27v-68.517l59.331-34.27z" fill="#f16600"/></g></svg>